<?xml version="1.0" encoding="utf-8"?>
<!-- Generator: Adobe Illustrator 16.0.0, SVG Export Plug-In . SVG Version: 6.00 Build 0)  -->
<!DOCTYPE svg PUBLIC "-//W3C//DTD SVG 1.1//EN" "http://www.w3.org/Graphics/SVG/1.1/DTD/svg11.dtd">
<svg version="1.1" id="icons" xmlns="http://www.w3.org/2000/svg" xmlns:xlink="http://www.w3.org/1999/xlink" x="0px" y="0px"
	 width="64px" height="64px" viewBox="0 0 64 64" enable-background="new 0 0 64 64" xml:space="preserve">
<g>
	<path fill="#E6E9ED" d="M63,36.004c0,2.2-1.8,4-4,4v-3v-1.999H5v1.999v3c-2.2,0-4-1.8-4-4v-3v-16c0-2.2,1.8-4,4-4h3h8h8h8h8h8h8h3
		c2.2,0,4,1.8,4,4v16V36.004z M35,24.014c0-1.66-1.35-3-3-3c-1.66,0-3,1.34-3,3c0,1.65,1.34,3,3,3C33.65,27.014,35,25.664,35,24.014
		z"/>
	<path fill="#CCD1D9" d="M59,10.004h-3h-8h-8h-8h-8h-8H8H5c-2.2,0-4,1.8-4,4v3c0-2.2,1.8-4,4-4h3h8h8h8h8h8h8h3c2.2,0,4,1.8,4,4v-3
		C63,11.804,61.2,10.004,59,10.004z"/>
	<path fill="#5D9CEC" d="M32,21.014c1.65,0,3,1.34,3,3c0,1.65-1.35,3-3,3c-1.66,0-3-1.35-3-3C29,22.354,30.34,21.014,32,21.014z"/>
	<path fill="#F5F7FA" d="M58,34.004c0.55,0,1,0.45,1,1v2.001c0,0.55-0.45,1-1,1H6c-0.55,0-1-0.45-1-1v-2.001c0-0.55,0.45-1,1-1H58z"
		/>
	<rect x="5" y="37.004" fill="#F5F7FA" width="54" height="3"/>
	<g>
		<path fill="#CCD1D9" d="M51.999,23.004h-12c-0.553,0-1-0.447-1-1s0.447-1,1-1h12c0.553,0,1,0.447,1,1S52.552,23.004,51.999,23.004
			z"/>
	</g>
	<g>
		<path fill="#CCD1D9" d="M51.999,26.004h-12c-0.553,0-1-0.447-1-1s0.447-1,1-1h12c0.553,0,1,0.447,1,1S52.552,26.004,51.999,26.004
			z"/>
	</g>
	<g>
		<path fill="#CCD1D9" d="M23.999,23.004h-12c-0.553,0-1-0.447-1-1s0.447-1,1-1h12c0.553,0,1,0.447,1,1S24.552,23.004,23.999,23.004
			z"/>
	</g>
	<g>
		<path fill="#CCD1D9" d="M23.999,26.004h-12c-0.553,0-1-0.447-1-1s0.447-1,1-1h12c0.553,0,1,0.447,1,1S24.552,26.004,23.999,26.004
			z"/>
	</g>
	<g>
		<path fill="#E6E9ED" d="M8,54c-0.553,0-1-0.447-1-1V43c0-0.553,0.447-1,1-1s1,0.447,1,1v10C9,53.553,8.553,54,8,54z"/>
	</g>
	<g>
		<path fill="#E6E9ED" d="M16,48.995c-0.553,0-1-0.447-1-1V43c0-0.553,0.447-1,1-1s1,0.447,1,1v4.995
			C17,48.548,16.553,48.995,16,48.995z"/>
	</g>
	<g>
		<path fill="#E6E9ED" d="M24,54c-0.553,0-1-0.447-1-1V43c0-0.553,0.447-1,1-1s1,0.447,1,1v10C25,53.553,24.553,54,24,54z"/>
	</g>
	<g>
		<path fill="#E6E9ED" d="M32,48.995c-0.553,0-1-0.447-1-1V43c0-0.553,0.447-1,1-1s1,0.447,1,1v4.995
			C33,48.548,32.553,48.995,32,48.995z"/>
	</g>
	<g>
		<path fill="#E6E9ED" d="M40,54c-0.553,0-1-0.447-1-1V43c0-0.553,0.447-1,1-1s1,0.447,1,1v10C41,53.553,40.553,54,40,54z"/>
	</g>
	<g>
		<path fill="#E6E9ED" d="M48,48.995c-0.553,0-1-0.447-1-1V43c0-0.553,0.447-1,1-1s1,0.447,1,1v4.995
			C49,48.548,48.553,48.995,48,48.995z"/>
	</g>
	<g>
		<path fill="#E6E9ED" d="M56,54c-0.553,0-1-0.447-1-1V43c0-0.553,0.447-1,1-1s1,0.447,1,1v10C57,53.553,56.553,54,56,54z"/>
	</g>
	<rect x="7" y="10" fill="#E6E9ED" width="2" height="3.003"/>
	<rect x="15" y="10" fill="#E6E9ED" width="2" height="3.003"/>
	<rect x="23" y="10" fill="#E6E9ED" width="2" height="3.003"/>
	<rect x="31" y="10" fill="#E6E9ED" width="2" height="3.003"/>
	<rect x="39" y="10" fill="#E6E9ED" width="2" height="3.003"/>
	<rect x="47" y="10" fill="#E6E9ED" width="2" height="3.003"/>
	<rect x="55" y="10" fill="#E6E9ED" width="2" height="3.003"/>
	<rect x="5" y="36.503" fill="#E6E9ED" width="54" height="1"/>
</g>
</svg>
